<svg id="my-svg" width="100%" xmlns="http://www.w3.org/2000/svg" xmlns:xlink="http://www.w3.org/1999/xlink" class="flowchart" style="max-width: 1158.96px; background-color: white;" viewBox="0 0 1158.95703125 1378.078125" role="graphics-document document" aria-roledescription="flowchart-v2"><style>#my-svg{font-family:"trebuchet ms",verdana,arial,sans-serif;font-size:16px;fill:#333;}@keyframes edge-animation-frame{from{stroke-dashoffset:0;}}@keyframes dash{to{stroke-dashoffset:0;}}#my-svg .edge-animation-slow{stroke-dasharray:9,5!important;stroke-dashoffset:900;animation:dash 50s linear infinite;stroke-linecap:round;}#my-svg .edge-animation-fast{stroke-dasharray:9,5!important;stroke-dashoffset:900;animation:dash 20s linear infinite;stroke-linecap:round;}#my-svg .error-icon{fill:#552222;}#my-svg .error-text{fill:#552222;stroke:#552222;}#my-svg .edge-thickness-normal{stroke-width:1px;}#my-svg .edge-thickness-thick{stroke-width:3.5px;}#my-svg .edge-pattern-solid{stroke-dasharray:0;}#my-svg .edge-thickness-invisible{stroke-width:0;fill:none;}#my-svg .edge-pattern-dashed{stroke-dasharray:3;}#my-svg .edge-pattern-dotted{stroke-dasharray:2;}#my-svg .marker{fill:#333333;stroke:#333333;}#my-svg .marker.cross{stroke:#333333;}#my-svg svg{font-family:"trebuchet ms",verdana,arial,sans-serif;font-size:16px;}#my-svg p{margin:0;}#my-svg .label{font-family:"trebuchet ms",verdana,arial,sans-serif;color:#333;}#my-svg .cluster-label text{fill:#333;}#my-svg .cluster-label span{color:#333;}#my-svg .cluster-label span p{background-color:transparent;}#my-svg .label text,#my-svg span{fill:#333;color:#333;}#my-svg .node rect,#my-svg .node circle,#my-svg .node ellipse,#my-svg .node polygon,#my-svg .node path{fill:#ECECFF;stroke:#9370DB;stroke-width:1px;}#my-svg .rough-node .label text,#my-svg .node .label text,#my-svg .image-shape .label,#my-svg .icon-shape .label{text-anchor:middle;}#my-svg .node .katex path{fill:#000;stroke:#000;stroke-width:1px;}#my-svg .rough-node .label,#my-svg .node .label,#my-svg .image-shape .label,#my-svg .icon-shape .label{text-align:center;}#my-svg .node.clickable{cursor:pointer;}#my-svg .root .anchor path{fill:#333333!important;stroke-width:0;stroke:#333333;}#my-svg .arrowheadPath{fill:#333333;}#my-svg .edgePath .path{stroke:#333333;stroke-width:1px;}#my-svg .flowchart-link{stroke:#333333;fill:none;}#my-svg .edgeLabel{background-color:rgba(232,232,232, 0.8);text-align:center;}#my-svg .edgeLabel p{background-color:rgba(232,232,232, 0.8);}#my-svg .edgeLabel rect{opacity:0.5;background-color:rgba(232,232,232, 0.8);fill:rgba(232,232,232, 0.8);}#my-svg .labelBkg{background-color:rgba(232, 232, 232, 0.5);}#my-svg .cluster rect{fill:#ffffde;stroke:#aaaa33;stroke-width:1px;}#my-svg .cluster text{fill:#333;}#my-svg .cluster span{color:#333;}#my-svg div.mermaidTooltip{position:absolute;text-align:center;max-width:200px;padding:2px;font-family:"trebuchet ms",verdana,arial,sans-serif;font-size:12px;background:hsl(80, 100%, 96.2745098039%);border:1px solid #aaaa33;border-radius:2px;pointer-events:none;z-index:100;}#my-svg .flowchartTitleText{text-anchor:middle;font-size:18px;fill:#333;}#my-svg rect.text{fill:none;stroke-width:0;}#my-svg .icon-shape,#my-svg .image-shape{background-color:rgba(232,232,232, 0.8);text-align:center;}#my-svg .icon-shape p,#my-svg .image-shape p{background-color:rgba(232,232,232, 0.8);padding:2px;}#my-svg .icon-shape .label rect,#my-svg .image-shape .label rect{opacity:0.5;background-color:rgba(232,232,232, 0.8);fill:rgba(232,232,232, 0.8);}#my-svg .label-icon{display:inline-block;height:1em;overflow:visible;vertical-align:-0.125em;}#my-svg .node .label-icon path{fill:currentColor;stroke:revert;stroke-width:revert;}#my-svg .node .neo-node{stroke:#9370DB;}#my-svg [data-look="neo"].node rect,#my-svg [data-look="neo"].cluster rect,#my-svg [data-look="neo"].node polygon{stroke:#9370DB;filter:drop-shadow(1px 2px 2px rgba(185, 185, 185, 1));}#my-svg [data-look="neo"].node path{stroke:#9370DB;stroke-width:1px;}#my-svg [data-look="neo"].node .outer-path{filter:drop-shadow(1px 2px 2px rgba(185, 185, 185, 1));}#my-svg [data-look="neo"].node .neo-line path{stroke:#9370DB;filter:none;}#my-svg [data-look="neo"].node circle{stroke:#9370DB;filter:drop-shadow(1px 2px 2px rgba(185, 185, 185, 1));}#my-svg [data-look="neo"].node circle .state-start{fill:#000000;}#my-svg [data-look="neo"].icon-shape .icon{fill:#9370DB;filter:drop-shadow(1px 2px 2px rgba(185, 185, 185, 1));}#my-svg [data-look="neo"].icon-shape .icon-neo path{stroke:#9370DB;filter:drop-shadow(1px 2px 2px rgba(185, 185, 185, 1));}#my-svg :root{--mermaid-font-family:"trebuchet ms",verdana,arial,sans-serif;}</style><g><marker id="my-svg_flowchart-v2-pointEnd" class="marker flowchart-v2" viewBox="0 0 10 10" refX="5" refY="5" markerUnits="userSpaceOnUse" markerWidth="8" markerHeight="8" orient="auto"><path d="M 0 0 L 10 5 L 0 10 z" class="arrowMarkerPath" style="stroke-width: 1; stroke-dasharray: 1, 0;"/></marker><marker id="my-svg_flowchart-v2-pointStart" class="marker flowchart-v2" viewBox="0 0 10 10" refX="4.5" refY="5" markerUnits="userSpaceOnUse" markerWidth="8" markerHeight="8" orient="auto"><path d="M 0 5 L 10 10 L 10 0 z" class="arrowMarkerPath" style="stroke-width: 1; stroke-dasharray: 1, 0;"/></marker><marker id="my-svg_flowchart-v2-pointEnd-margin" class="marker flowchart-v2" viewBox="0 0 11.5 14" refX="11.5" refY="7" markerUnits="userSpaceOnUse" markerWidth="10.5" markerHeight="14" orient="auto"><path d="M 0 0 L 11.5 7 L 0 14 z" class="arrowMarkerPath" style="stroke-width: 0; stroke-dasharray: 1, 0;"/></marker><marker id="my-svg_flowchart-v2-pointStart-margin" class="marker flowchart-v2" viewBox="0 0 11.5 14" refX="1" refY="7" markerUnits="userSpaceOnUse" markerWidth="11.5" markerHeight="14" orient="auto"><polygon points="0,7 11.5,14 11.5,0" class="arrowMarkerPath" style="stroke-width: 0; stroke-dasharray: 1, 0;"/></marker><marker id="my-svg_flowchart-v2-circleEnd" class="marker flowchart-v2" viewBox="0 0 10 10" refX="11" refY="5" markerUnits="userSpaceOnUse" markerWidth="11" markerHeight="11" orient="auto"><circle cx="5" cy="5" r="5" class="arrowMarkerPath" style="stroke-width: 1; stroke-dasharray: 1, 0;"/></marker><marker id="my-svg_flowchart-v2-circleStart" class="marker flowchart-v2" viewBox="0 0 10 10" refX="-1" refY="5" markerUnits="userSpaceOnUse" markerWidth="11" markerHeight="11" orient="auto"><circle cx="5" cy="5" r="5" class="arrowMarkerPath" style="stroke-width: 1; stroke-dasharray: 1, 0;"/></marker><marker id="my-svg_flowchart-v2-circleEnd-margin" class="marker flowchart-v2" viewBox="0 0 10 10" refY="5" refX="12.25" markerUnits="userSpaceOnUse" markerWidth="14" markerHeight="14" orient="auto"><circle cx="5" cy="5" r="5" class="arrowMarkerPath" style="stroke-width: 0; stroke-dasharray: 1, 0;"/></marker><marker id="my-svg_flowchart-v2-circleStart-margin" class="marker flowchart-v2" viewBox="0 0 10 10" refX="-2" refY="5" markerUnits="userSpaceOnUse" markerWidth="14" markerHeight="14" orient="auto"><circle cx="5" cy="5" r="5" class="arrowMarkerPath" style="stroke-width: 0; stroke-dasharray: 1, 0;"/></marker><marker id="my-svg_flowchart-v2-crossEnd" class="marker cross flowchart-v2" viewBox="0 0 11 11" refX="12" refY="5.2" markerUnits="userSpaceOnUse" markerWidth="11" markerHeight="11" orient="auto"><path d="M 1,1 l 9,9 M 10,1 l -9,9" class="arrowMarkerPath" style="stroke-width: 2; stroke-dasharray: 1, 0;"/></marker><marker id="my-svg_flowchart-v2-crossStart" class="marker cross flowchart-v2" viewBox="0 0 11 11" refX="-1" refY="5.2" markerUnits="userSpaceOnUse" markerWidth="11" markerHeight="11" orient="auto"><path d="M 1,1 l 9,9 M 10,1 l -9,9" class="arrowMarkerPath" style="stroke-width: 2; stroke-dasharray: 1, 0;"/></marker><marker id="my-svg_flowchart-v2-crossEnd-margin" class="marker cross flowchart-v2" viewBox="0 0 15 15" refX="17.7" refY="7.5" markerUnits="userSpaceOnUse" markerWidth="12" markerHeight="12" orient="auto"><path d="M 1,1 L 14,14 M 1,14 L 14,1" class="arrowMarkerPath" style="stroke-width: 2.5;"/></marker><marker id="my-svg_flowchart-v2-crossStart-margin" class="marker cross flowchart-v2" viewBox="0 0 15 15" refX="-3.5" refY="7.5" markerUnits="userSpaceOnUse" markerWidth="12" markerHeight="12" orient="auto"><path d="M 1,1 L 14,14 M 1,14 L 14,1" class="arrowMarkerPath" style="stroke-width: 2.5; stroke-dasharray: 1, 0;"/></marker><g class="root"><g class="clusters"/><g class="edgePaths"><path d="M711.625,47.5L711.542,51.583C711.458,55.667,711.292,63.833,711.208,71.417C711.125,79,711.125,86,711.125,89.5L711.125,93" id="my-svg-L_START_LOG_0" class="edge-thickness-normal edge-pattern-solid edge-thickness-normal edge-pattern-solid flowchart-link" style=";" data-edge="true" data-et="edge" data-id="L_START_LOG_0" data-points="W3sieCI6NzExLjYyNSwieSI6NDcuNTAwMDAwMDAwMDAwMDM2fSx7IngiOjcxMS4xMjUsInkiOjcyfSx7IngiOjcxMS4xMjUsInkiOjk3fV0=" data-look="classic" marker-end="url(#my-svg_flowchart-v2-pointEnd)"/><path d="M612.356,151L597.113,155.167C581.871,159.333,551.387,167.667,536.145,175.333C520.902,183,520.902,190,520.902,193.5L520.902,197" id="my-svg-L_LOG_GL_0" class="edge-thickness-normal edge-pattern-solid edge-thickness-normal edge-pattern-solid flowchart-link" style=";" data-edge="true" data-et="edge" data-id="L_LOG_GL_0" data-points="W3sieCI6NjEyLjM1NTU0Mzg3MDE5MjMsInkiOjE1MX0seyJ4Ijo1MjAuOTAyMzQzNzUsInkiOjE3Nn0seyJ4Ijo1MjAuOTAyMzQzNzUsInkiOjIwMX1d" data-look="classic" marker-end="url(#my-svg_flowchart-v2-pointEnd)"/><path d="M828.258,146.19L854.484,151.158C880.711,156.126,933.164,166.063,959.391,176.226C985.617,186.388,985.617,196.776,985.617,201.97L985.617,207.164" id="my-svg-L_LOG_JR_0" class="edge-thickness-normal edge-pattern-solid edge-thickness-normal edge-pattern-solid flowchart-link" style=";" data-edge="true" data-et="edge" data-id="L_LOG_JR_0" data-points="W3sieCI6ODI4LjI1NzgxMjUsInkiOjE0Ni4xODk3MjUzNDUwOTc1fSx7IngiOjk4NS42MTcxODc1LCJ5IjoxNzZ9LHsieCI6OTg1LjYxNzE4NzUsInkiOjIxMS4xNjQwNjI1fV0=" data-look="classic" marker-end="url(#my-svg_flowchart-v2-pointEnd)"/><path d="M476.84,370.344L467.337,383.854C457.834,397.365,438.827,424.386,429.324,443.396C419.82,462.406,419.82,473.406,419.82,478.906L419.82,484.406" id="my-svg-L_GL_GL_OK_0" class="edge-thickness-normal edge-pattern-solid edge-thickness-normal edge-pattern-solid flowchart-link" style=";" data-edge="true" data-et="edge" data-id="L_GL_GL_OK_0" data-points="W3sieCI6NDc2Ljg0MDE1OTY2NTk4MTgsInkiOjM3MC4zNDQwNjU5MTU5ODE4fSx7IngiOjQxOS44MjAzMTI1LCJ5Ijo0NTEuNDA2MjV9LHsieCI6NDE5LjgyMDMxMjUsInkiOjQ4OC40MDYyNX1d" data-look="classic" marker-end="url(#my-svg_flowchart-v2-pointEnd)"/><path d="M578.479,356.83L596.953,372.592C615.427,388.355,652.376,419.881,670.85,441.143C689.324,462.406,689.324,473.406,689.324,478.906L689.324,484.406" id="my-svg-L_GL_GL_FAIL_0" class="edge-thickness-normal edge-pattern-solid edge-thickness-normal edge-pattern-solid flowchart-link" style=";" data-edge="true" data-et="edge" data-id="L_GL_GL_FAIL_0" data-points="W3sieCI6NTc4LjQ3OTA4NTA1ODMyLCJ5IjozNTYuODI5NTA4NjkxNjh9LHsieCI6Njg5LjMyNDIxODc1LCJ5Ijo0NTEuNDA2MjV9LHsieCI6Njg5LjMyNDIxODc1LCJ5Ijo0ODguNDA2MjV9XQ==" data-look="classic" marker-end="url(#my-svg_flowchart-v2-pointEnd)"/><path d="M945.52,364.145L935.188,378.688C924.856,393.232,904.191,422.319,893.859,442.363C883.527,462.406,883.527,473.406,883.527,478.906L883.527,484.406" id="my-svg-L_JR_JR_OK_0" class="edge-thickness-normal edge-pattern-solid edge-thickness-normal edge-pattern-solid flowchart-link" style=";" data-edge="true" data-et="edge" data-id="L_JR_JR_OK_0" data-points="W3sieCI6OTQ1LjUxOTc5MjI5NTc0MjQsInkiOjM2NC4xNDQ3OTIyOTU3NDI0M30seyJ4Ijo4ODMuNTI3MzQzNzUsInkiOjQ1MS40MDYyNX0seyJ4Ijo4ODMuNTI3MzQzNzUsInkiOjQ4OC40MDYyNX1d" data-look="classic" marker-end="url(#my-svg_flowchart-v2-pointEnd)"/><path d="M1021.271,368.588L1029.354,382.391C1037.437,396.194,1053.603,423.8,1061.686,443.103C1069.77,462.406,1069.77,473.406,1069.77,478.906L1069.77,484.406" id="my-svg-L_JR_JR_FAIL_0" class="edge-thickness-normal edge-pattern-solid edge-thickness-normal edge-pattern-solid flowchart-link" style=";" data-edge="true" data-et="edge" data-id="L_JR_JR_FAIL_0" data-points="W3sieCI6MTAyMS4yNzEzMTY5MjQxMDU2LCJ5IjozNjguNTg4MDU4MDc1ODk0NX0seyJ4IjoxMDY5Ljc2OTUzMTI1LCJ5Ijo0NTEuNDA2MjV9LHsieCI6MTA2OS43Njk1MzEyNSwieSI6NDg4LjQwNjI1fV0=" data-look="classic" marker-end="url(#my-svg_flowchart-v2-pointEnd)"/><path d="M376.984,542.406L370.373,546.573C363.763,550.74,350.541,559.073,343.931,566.74C337.32,574.406,337.32,581.406,337.32,584.906L337.32,588.406" id="my-svg-L_GL_OK_BOTH_0" class="edge-thickness-normal edge-pattern-solid edge-thickness-normal edge-pattern-solid flowchart-link" style=";" data-edge="true" data-et="edge" data-id="L_GL_OK_BOTH_0" data-points="W3sieCI6Mzc2Ljk4Mzc3NDAzODQ2MTU1LCJ5Ijo1NDIuNDA2MjV9LHsieCI6MzM3LjMyMDMxMjUsInkiOjU2Ny40MDYyNX0seyJ4IjozMzcuMzIwMzEyNSwieSI6NTkyLjQwNjI1fV0=" data-look="classic" marker-end="url(#my-svg_flowchart-v2-pointEnd)"/><path d="M828.473,528.668L801.67,535.124C774.867,541.581,721.262,554.494,647.657,572.563C574.053,590.633,480.449,613.859,433.647,625.473L386.846,637.086" id="my-svg-L_JR_OK_BOTH_0" class="edge-thickness-normal edge-pattern-solid edge-thickness-normal edge-pattern-solid flowchart-link" style=";" data-edge="true" data-et="edge" data-id="L_JR_OK_BOTH_0" data-points="W3sieCI6ODI4LjQ3MjY1NjI1LCJ5Ijo1MjguNjY4MDcwNzQ4MDU5M30seyJ4Ijo2NjcuNjU2MjUsInkiOjU2Ny40MDYyNX0seyJ4IjozODIuOTYzMzE4Nzc2NjQ2MTMsInkiOjYzOC4wNDkyNTYyNzY2NDYxfV0=" data-look="classic" marker-end="url(#my-svg_flowchart-v2-pointEnd)"/><path d="M302.722,671.745L284.265,683.678C265.809,695.611,228.897,719.478,210.441,738.911C191.984,758.344,191.984,773.344,191.984,780.844L191.984,788.344" id="my-svg-L_BOTH_MAP_0" class="edge-thickness-normal edge-pattern-solid edge-thickness-normal edge-pattern-solid flowchart-link" style=";" data-edge="true" data-et="edge" data-id="L_BOTH_MAP_0" data-points="W3sieCI6MzAyLjcyMTcxNDQ3MDIyNjIzLCJ5Ijo2NzEuNzQ1MTUxOTcwMjI2M30seyJ4IjoxOTEuOTg0Mzc1LCJ5Ijo3NDMuMzQzNzV9LHsieCI6MTkxLjk4NDM3NSwieSI6NzkyLjM0Mzc1fV0=" data-look="classic" marker-end="url(#my-svg_flowchart-v2-pointEnd)"/><path d="M191.984,846.344L191.984,852.51C191.984,858.677,191.984,871.01,191.984,893.322C191.984,915.633,191.984,947.922,191.984,964.066L191.984,980.211" id="my-svg-L_MAP_MTTR_0" class="edge-thickness-normal edge-pattern-solid edge-thickness-normal edge-pattern-solid flowchart-link" style=";" data-edge="true" data-et="edge" data-id="L_MAP_MTTR_0" data-points="W3sieCI6MTkxLjk4NDM3NSwieSI6ODQ2LjM0Mzc1fSx7IngiOjE5MS45ODQzNzUsInkiOjg4My4zNDM3NX0seyJ4IjoxOTEuOTg0Mzc1LCJ5Ijo5ODQuMjEwOTM3NX1d" data-look="classic" marker-end="url(#my-svg_flowchart-v2-pointEnd)"/><path d="M191.984,1038.211L191.984,1057.022C191.984,1075.833,191.984,1113.456,191.984,1139.767C191.984,1166.078,191.984,1181.078,191.984,1188.578L191.984,1196.078" id="my-svg-L_MTTR_HYDR_0" class="edge-thickness-normal edge-pattern-solid edge-thickness-normal edge-pattern-solid flowchart-link" style=";" data-edge="true" data-et="edge" data-id="L_MTTR_HYDR_0" data-points="W3sieCI6MTkxLjk4NDM3NSwieSI6MTAzOC4yMTA5Mzc1fSx7IngiOjE5MS45ODQzNzUsInkiOjExNTEuMDc4MTI1fSx7IngiOjE5MS45ODQzNzUsInkiOjEyMDAuMDc4MTI1fV0=" data-look="classic" marker-end="url(#my-svg_flowchart-v2-pointEnd)"/><path d="M191.984,1254.078L191.984,1260.245C191.984,1266.411,191.984,1278.745,191.984,1288.411C191.984,1298.078,191.984,1305.078,191.984,1308.578L191.984,1312.078" id="my-svg-L_HYDR_LPP_0" class="edge-thickness-normal edge-pattern-solid edge-thickness-normal edge-pattern-solid flowchart-link" style=";" data-edge="true" data-et="edge" data-id="L_HYDR_LPP_0" data-points="W3sieCI6MTkxLjk4NDM3NSwieSI6MTI1NC4wNzgxMjV9LHsieCI6MTkxLjk4NDM3NSwieSI6MTI5MS4wNzgxMjV9LHsieCI6MTkxLjk4NDM3NSwieSI6MTMxNi4wNzgxMjV9XQ==" data-look="classic" marker-end="url(#my-svg_flowchart-v2-pointEnd)"/><path d="M371.919,671.745L390.375,683.678C408.831,695.611,445.744,719.478,464.2,736.911C482.656,754.344,482.656,765.344,482.656,770.844L482.656,776.344" id="my-svg-L_BOTH_SKIP_DERIV_0" class="edge-thickness-normal edge-pattern-solid edge-thickness-normal edge-pattern-solid flowchart-link" style=";" data-edge="true" data-et="edge" data-id="L_BOTH_SKIP_DERIV_0" data-points="W3sieCI6MzcxLjkxODkxMDUyOTc3Mzc3LCJ5Ijo2NzEuNzQ1MTUxOTcwMjI2M30seyJ4Ijo0ODIuNjU2MjUsInkiOjc0My4zNDM3NX0seyJ4Ijo0ODIuNjU2MjUsInkiOjc4MC4zNDM3NX1d" data-look="classic" marker-end="url(#my-svg_flowchart-v2-pointEnd)"/><path d="M482.836,529.789L510.306,536.058C537.776,542.328,592.716,554.867,620.186,574.798C647.656,594.729,647.656,622.052,647.656,651.375C647.656,680.698,647.656,712.021,647.656,740.349C647.656,768.677,647.656,794.01,647.656,817.344C647.656,840.677,647.656,862.01,658.215,884.453C668.773,906.895,689.89,930.446,700.449,942.221L711.007,953.997" id="my-svg-L_GL_OK_ANY_0" class="edge-thickness-normal edge-pattern-solid edge-thickness-normal edge-pattern-solid flowchart-link" style=";" data-edge="true" data-et="edge" data-id="L_GL_OK_ANY_0" data-points="W3sieCI6NDgyLjgzNTkzNzUsInkiOjUyOS43ODg1ODM3NzkxMDM2fSx7IngiOjY0Ny42NTYyNSwieSI6NTY3LjQwNjI1fSx7IngiOjY0Ny42NTYyNSwieSI6NjQ5LjM3NX0seyJ4Ijo2NDcuNjU2MjUsInkiOjc0My4zNDM3NX0seyJ4Ijo2NDcuNjU2MjUsInkiOjgxOS4zNDM3NX0seyJ4Ijo2NDcuNjU2MjUsInkiOjg4My4zNDM3NX0seyJ4Ijo3MTMuNjc3NjA2ODcyMTMwOSwieSI6OTU2Ljk3NDczNjg3Nzg2OTF9XQ==" data-look="classic" marker-end="url(#my-svg_flowchart-v2-pointEnd)"/><path d="M883.527,542.406L883.527,546.573C883.527,550.74,883.527,559.073,883.527,576.901C883.527,594.729,883.527,622.052,883.527,651.375C883.527,680.698,883.527,712.021,883.527,740.349C883.527,768.677,883.527,794.01,883.527,817.344C883.527,840.677,883.527,862.01,872.126,884.703C860.725,907.396,837.923,931.449,826.522,943.475L815.121,955.502" id="my-svg-L_JR_OK_ANY_0" class="edge-thickness-normal edge-pattern-solid edge-thickness-normal edge-pattern-solid flowchart-link" style=";" data-edge="true" data-et="edge" data-id="L_JR_OK_ANY_0" data-points="W3sieCI6ODgzLjUyNzM0Mzc1LCJ5Ijo1NDIuNDA2MjV9LHsieCI6ODgzLjUyNzM0Mzc1LCJ5Ijo1NjcuNDA2MjV9LHsieCI6ODgzLjUyNzM0Mzc1LCJ5Ijo2NDkuMzc1fSx7IngiOjg4My41MjczNDM3NSwieSI6NzQzLjM0Mzc1fSx7IngiOjg4My41MjczNDM3NSwieSI6ODE5LjM0Mzc1fSx7IngiOjg4My41MjczNDM3NSwieSI6ODgzLjM0Mzc1fSx7IngiOjgxMi4zNjkzNTU5NTA4NTk0LCJ5Ijo5NTguNDA0NTEyMjAwODU5NH1d" data-look="classic" marker-end="url(#my-svg_flowchart-v2-pointEnd)"/><path d="M482.656,858.344L482.656,862.51C482.656,866.677,482.656,875.01,516.894,894.832C551.131,914.653,619.606,945.962,653.843,961.616L688.08,977.271" id="my-svg-L_SKIP_DERIV_ANY_0" class="edge-thickness-normal edge-pattern-solid edge-thickness-normal edge-pattern-solid flowchart-link" style=";" data-edge="true" data-et="edge" data-id="L_SKIP_DERIV_ANY_0" data-points="W3sieCI6NDgyLjY1NjI1LCJ5Ijo4NTguMzQzNzV9LHsieCI6NDgyLjY1NjI1LCJ5Ijo4ODMuMzQzNzV9LHsieCI6NjkxLjcxNzk4OTE5MzkyNTIsInkiOjk3OC45MzQzNTQ1NTYwNzQ4fV0=" data-look="classic" marker-end="url(#my-svg_flowchart-v2-pointEnd)"/><path d="M701,1052.769L676.828,1069.154C652.656,1085.539,604.312,1118.308,580.141,1140.193C555.969,1162.078,555.969,1173.078,555.969,1178.578L555.969,1184.078" id="my-svg-L_ANY_SNAP_0" class="edge-thickness-normal edge-pattern-solid edge-thickness-normal edge-pattern-solid flowchart-link" style=";" data-edge="true" data-et="edge" data-id="L_ANY_SNAP_0" data-points="W3sieCI6NzAwLjk5OTYxNTM2NDY4MDMsInkiOjEwNTIuNzY5MTQ2NjE0NjgwM30seyJ4Ijo1NTUuOTY4NzUsInkiOjExNTEuMDc4MTI1fSx7IngiOjU1NS45Njg3NSwieSI6MTE4OC4wNzgxMjV9XQ==" data-look="classic" marker-end="url(#my-svg_flowchart-v2-pointEnd)"/><path d="M818.517,1057.869L837.232,1073.404C855.946,1088.939,893.376,1120.009,912.09,1143.043C930.805,1166.078,930.805,1181.078,930.805,1188.578L930.805,1196.078" id="my-svg-L_ANY_NO_SNAP_0" class="edge-thickness-normal edge-pattern-solid edge-thickness-normal edge-pattern-solid flowchart-link" style=";" data-edge="true" data-et="edge" data-id="L_ANY_NO_SNAP_0" data-points="W3sieCI6ODE4LjUxNzM1ODkzOTM1MDMsInkiOjEwNTcuODY5MzU5ODEwNjQ5N30seyJ4Ijo5MzAuODA0Njg3NSwieSI6MTE1MS4wNzgxMjV9LHsieCI6OTMwLjgwNDY4NzUsInkiOjEyMDAuMDc4MTI1fV0=" data-look="classic" marker-end="url(#my-svg_flowchart-v2-pointEnd)"/><path d="M555.969,1266.078L555.969,1270.245C555.969,1274.411,555.969,1282.745,571.856,1290.915C587.743,1299.086,619.517,1307.093,635.405,1311.097L651.292,1315.101" id="my-svg-L_SNAP_FIN_0" class="edge-thickness-normal edge-pattern-solid edge-thickness-normal edge-pattern-solid flowchart-link" style=";" data-edge="true" data-et="edge" data-id="L_SNAP_FIN_0" data-points="W3sieCI6NTU1Ljk2ODc1LCJ5IjoxMjY2LjA3ODEyNX0seyJ4Ijo1NTUuOTY4NzUsInkiOjEyOTEuMDc4MTI1fSx7IngiOjY1NS4xNzA1OTc5NTY3MzA3LCJ5IjoxMzE2LjA3ODEyNX1d" data-look="classic" marker-end="url(#my-svg_flowchart-v2-pointEnd)"/><path d="M930.805,1254.078L930.805,1260.245C930.805,1266.411,930.805,1278.745,917.94,1288.882C905.076,1299.018,879.348,1306.958,866.483,1310.928L853.619,1314.899" id="my-svg-L_NO_SNAP_FIN_0" class="edge-thickness-normal edge-pattern-solid edge-thickness-normal edge-pattern-solid flowchart-link" style=";" data-edge="true" data-et="edge" data-id="L_NO_SNAP_FIN_0" data-points="W3sieCI6OTMwLjgwNDY4NzUsInkiOjEyNTQuMDc4MTI1fSx7IngiOjkzMC44MDQ2ODc1LCJ5IjoxMjkxLjA3ODEyNX0seyJ4Ijo4NDkuNzk2OTUwMTIwMTkyMywieSI6MTMxNi4wNzgxMjV9XQ==" data-look="classic" marker-end="url(#my-svg_flowchart-v2-pointEnd)"/></g><g class="edgeLabels"><g class="edgeLabel"><g class="label" data-id="L_START_LOG_0" transform="translate(0, 0)"><foreignObject width="0" height="0"><div xmlns="http://www.w3.org/1999/xhtml" class="labelBkg" style="display: table-cell; white-space: nowrap; line-height: 1.5; max-width: 200px; text-align: center;"><span class="edgeLabel"></span></div></foreignObject></g></g><g class="edgeLabel"><g class="label" data-id="L_LOG_GL_0" transform="translate(0, 0)"><foreignObject width="0" height="0"><div xmlns="http://www.w3.org/1999/xhtml" class="labelBkg" style="display: table-cell; white-space: nowrap; line-height: 1.5; max-width: 200px; text-align: center;"><span class="edgeLabel"></span></div></foreignObject></g></g><g class="edgeLabel"><g class="label" data-id="L_LOG_JR_0" transform="translate(0, 0)"><foreignObject width="0" height="0"><div xmlns="http://www.w3.org/1999/xhtml" class="labelBkg" style="display: table-cell; white-space: nowrap; line-height: 1.5; max-width: 200px; text-align: center;"><span class="edgeLabel"></span></div></foreignObject></g></g><g class="edgeLabel" transform="translate(419.8203125, 451.40625)"><g class="label" data-id="L_GL_GL_OK_0" transform="translate(-8.328125, -12)"><foreignObject width="16.65625" height="24"><div xmlns="http://www.w3.org/1999/xhtml" class="labelBkg" style="display: table-cell; white-space: nowrap; line-height: 1.5; max-width: 200px; text-align: center;"><span class="edgeLabel"><p>ok</p></span></div></foreignObject></g></g><g class="edgeLabel" transform="translate(689.32421875, 451.40625)"><g class="label" data-id="L_GL_GL_FAIL_0" transform="translate(-69.53125, -12)"><foreignObject width="139.0625" height="24"><div xmlns="http://www.w3.org/1999/xhtml" class="labelBkg" style="display: table-cell; white-space: nowrap; line-height: 1.5; max-width: 200px; text-align: center;"><span class="edgeLabel"><p>fail / missing token</p></span></div></foreignObject></g></g><g class="edgeLabel" transform="translate(883.52734375, 451.40625)"><g class="label" data-id="L_JR_JR_OK_0" transform="translate(-8.328125, -12)"><foreignObject width="16.65625" height="24"><div xmlns="http://www.w3.org/1999/xhtml" class="labelBkg" style="display: table-cell; white-space: nowrap; line-height: 1.5; max-width: 200px; text-align: center;"><span class="edgeLabel"><p>ok</p></span></div></foreignObject></g></g><g class="edgeLabel" transform="translate(1069.76953125, 451.40625)"><g class="label" data-id="L_JR_JR_FAIL_0" transform="translate(-69.53125, -12)"><foreignObject width="139.0625" height="24"><div xmlns="http://www.w3.org/1999/xhtml" class="labelBkg" style="display: table-cell; white-space: nowrap; line-height: 1.5; max-width: 200px; text-align: center;"><span class="edgeLabel"><p>fail / missing token</p></span></div></foreignObject></g></g><g class="edgeLabel"><g class="label" data-id="L_GL_OK_BOTH_0" transform="translate(0, 0)"><foreignObject width="0" height="0"><div xmlns="http://www.w3.org/1999/xhtml" class="labelBkg" style="display: table-cell; white-space: nowrap; line-height: 1.5; max-width: 200px; text-align: center;"><span class="edgeLabel"></span></div></foreignObject></g></g><g class="edgeLabel"><g class="label" data-id="L_JR_OK_BOTH_0" transform="translate(0, 0)"><foreignObject width="0" height="0"><div xmlns="http://www.w3.org/1999/xhtml" class="labelBkg" style="display: table-cell; white-space: nowrap; line-height: 1.5; max-width: 200px; text-align: center;"><span class="edgeLabel"></span></div></foreignObject></g></g><g class="edgeLabel" transform="translate(191.984375, 743.34375)"><g class="label" data-id="L_BOTH_MAP_0" transform="translate(-11.546875, -12)"><foreignObject width="23.09375" height="24"><div xmlns="http://www.w3.org/1999/xhtml" class="labelBkg" style="display: table-cell; white-space: nowrap; line-height: 1.5; max-width: 200px; text-align: center;"><span class="edgeLabel"><p>yes</p></span></div></foreignObject></g></g><g class="edgeLabel"><g class="label" data-id="L_MAP_MTTR_0" transform="translate(0, 0)"><foreignObject width="0" height="0"><div xmlns="http://www.w3.org/1999/xhtml" class="labelBkg" style="display: table-cell; white-space: nowrap; line-height: 1.5; max-width: 200px; text-align: center;"><span class="edgeLabel"></span></div></foreignObject></g></g><g class="edgeLabel"><g class="label" data-id="L_MTTR_HYDR_0" transform="translate(0, 0)"><foreignObject width="0" height="0"><div xmlns="http://www.w3.org/1999/xhtml" class="labelBkg" style="display: table-cell; white-space: nowrap; line-height: 1.5; max-width: 200px; text-align: center;"><span class="edgeLabel"></span></div></foreignObject></g></g><g class="edgeLabel"><g class="label" data-id="L_HYDR_LPP_0" transform="translate(0, 0)"><foreignObject width="0" height="0"><div xmlns="http://www.w3.org/1999/xhtml" class="labelBkg" style="display: table-cell; white-space: nowrap; line-height: 1.5; max-width: 200px; text-align: center;"><span class="edgeLabel"></span></div></foreignObject></g></g><g class="edgeLabel" transform="translate(482.65625, 743.34375)"><g class="label" data-id="L_BOTH_SKIP_DERIV_0" transform="translate(-8.6640625, -12)"><foreignObject width="17.328125" height="24"><div xmlns="http://www.w3.org/1999/xhtml" class="labelBkg" style="display: table-cell; white-space: nowrap; line-height: 1.5; max-width: 200px; text-align: center;"><span class="edgeLabel"><p>no</p></span></div></foreignObject></g></g><g class="edgeLabel"><g class="label" data-id="L_GL_OK_ANY_0" transform="translate(0, 0)"><foreignObject width="0" height="0"><div xmlns="http://www.w3.org/1999/xhtml" class="labelBkg" style="display: table-cell; white-space: nowrap; line-height: 1.5; max-width: 200px; text-align: center;"><span class="edgeLabel"></span></div></foreignObject></g></g><g class="edgeLabel"><g class="label" data-id="L_JR_OK_ANY_0" transform="translate(0, 0)"><foreignObject width="0" height="0"><div xmlns="http://www.w3.org/1999/xhtml" class="labelBkg" style="display: table-cell; white-space: nowrap; line-height: 1.5; max-width: 200px; text-align: center;"><span class="edgeLabel"></span></div></foreignObject></g></g><g class="edgeLabel"><g class="label" data-id="L_SKIP_DERIV_ANY_0" transform="translate(0, 0)"><foreignObject width="0" height="0"><div xmlns="http://www.w3.org/1999/xhtml" class="labelBkg" style="display: table-cell; white-space: nowrap; line-height: 1.5; max-width: 200px; text-align: center;"><span class="edgeLabel"></span></div></foreignObject></g></g><g class="edgeLabel" transform="translate(555.96875, 1151.078125)"><g class="label" data-id="L_ANY_SNAP_0" transform="translate(-11.546875, -12)"><foreignObject width="23.09375" height="24"><div xmlns="http://www.w3.org/1999/xhtml" class="labelBkg" style="display: table-cell; white-space: nowrap; line-height: 1.5; max-width: 200px; text-align: center;"><span class="edgeLabel"><p>yes</p></span></div></foreignObject></g></g><g class="edgeLabel" transform="translate(930.8046875, 1151.078125)"><g class="label" data-id="L_ANY_NO_SNAP_0" transform="translate(-8.6640625, -12)"><foreignObject width="17.328125" height="24"><div xmlns="http://www.w3.org/1999/xhtml" class="labelBkg" style="display: table-cell; white-space: nowrap; line-height: 1.5; max-width: 200px; text-align: center;"><span class="edgeLabel"><p>no</p></span></div></foreignObject></g></g><g class="edgeLabel"><g class="label" data-id="L_SNAP_FIN_0" transform="translate(0, 0)"><foreignObject width="0" height="0"><div xmlns="http://www.w3.org/1999/xhtml" class="labelBkg" style="display: table-cell; white-space: nowrap; line-height: 1.5; max-width: 200px; text-align: center;"><span class="edgeLabel"></span></div></foreignObject></g></g><g class="edgeLabel"><g class="label" data-id="L_NO_SNAP_FIN_0" transform="translate(0, 0)"><foreignObject width="0" height="0"><div xmlns="http://www.w3.org/1999/xhtml" class="labelBkg" style="display: table-cell; white-space: nowrap; line-height: 1.5; max-width: 200px; text-align: center;"><span class="edgeLabel"></span></div></foreignObject></g></g></g><g class="nodes"><g class="node default" id="my-svg-flowchart-START-0" data-look="classic" transform="translate(711.125, 27.5)"><g class="basic label-container outer-path"><path d="M-53.1484375 -19.5 C-24.352742582338887 -19.5, 4.442952335322225 -19.5, 53.1484375 -19.5 C53.1484375 -19.5, 53.1484375 -19.5, 53.1484375 -19.5 C53.45198045240409 -19.490265968326916, 53.75552340480817 -19.480531936653833, 54.3978067896239 -19.45993515863156 C54.74522886147203 -19.426419769196542, 55.09265093332016 -19.392904379761525, 55.642042152847864 -19.3399052695533 C56.13542305523625 -19.26013927148119, 56.62880395762463 -19.180373273409078, 56.87603075967676 -19.140403561325776 C57.24943849971175 -19.055175681376014, 57.62284623974674 -18.969947801426255, 58.09470188623539 -18.862249829261074 C58.41793307893022 -18.766316507944403, 58.74116427162505 -18.67038318662773, 59.293047751460605 -18.50658706670804 C59.66428666681732 -18.369967714161852, 60.03552558217403 -18.23334836161567, 60.4661440951478 -18.074876768247425 C60.81711899269267 -17.91951059240473, 61.16809389023754 -17.764144416562036, 61.60917041279238 -17.568892924097174 C61.98619636455699 -17.372198726558228, 62.36322231632159 -17.175504529019282, 62.71742976407678 -16.990714730406097 C63.105155989777906 -16.75567281385386, 63.49288221547903 -16.520630897301626, 63.7863680736057 -16.342718045390892 C64.09145953883353 -16.129899446444625, 64.39655100406135 -15.917080847498362, 64.81159284457871 -15.627565626425154 C65.03852093380337 -15.446596514078562, 65.26544902302801 -15.265627401731972, 65.78889120850187 -14.848196188198123 C66.05690256142329 -14.604795368666707, 66.3249139143447 -14.361394549135293, 66.71424723676799 -14.007812326905688 C66.90397737406836 -13.811900383009089, 67.09370751136872 -13.615988439112488, 67.58385844296865 -13.10986736009568 C67.7786915500551 -12.881005306194073, 67.97352465714157 -12.652143252292465, 68.39415140812658 -12.158051136245305 C68.68633960712653 -11.766545568477902, 68.97852780612648 -11.375040000710499, 69.14179646464063 -11.156274872382312 C69.39008147624797 -10.7748424206926, 69.63836648785532 -10.393409969002889, 69.82372137860425 -10.108655082055241 C69.96962220688195 -9.849593387387275, 70.11552303515965 -9.590531692719308, 70.4371239742735 -9.019496659696287 C70.62808795894156 -8.622955859558362, 70.81905194360961 -8.226415059420436, 70.97948364880834 -7.893275190886684 C71.16588535574643 -7.432859370917763, 71.35228706268452 -6.9724435509488405, 71.44857172997033 -6.734618561215508 C71.52793990478105 -6.49557426428698, 71.60730807959176 -6.2565299673584525, 71.84246063421489 -5.548287939305138 C71.9214704583642 -5.246989236749391, 72.00048028251352 -4.945690534193643, 72.15953178754556 -4.339158212148133 C72.21818019345072 -4.038011043170095, 72.27682859935588 -3.736863874192057, 72.39848227658177 -3.1121979531509023 C72.45582440170303 -2.667463754193812, 72.51316652682429 -2.222729555236721, 72.55833020250937 -1.872449005199798 C72.58709957320265 -1.4243428344338904, 72.61586894389593 -0.9762366636679828, 72.63841871591342 -0.6250057626472757 C72.63841871591342 -0.23410080155642898, 72.63841871591342 0.15680415953441773, 72.63841871591342 0.625005762647271 C72.62175935189741 0.8844888043932628, 72.60509998788139 1.1439718461392547, 72.55833020250937 1.8724490051997846 C72.50567823602711 2.2808072599293965, 72.45302626954485 2.6891655146590088, 72.39848227658177 3.1121979531508885 C72.31365251234477 3.547780863730893, 72.22882274810776 3.983363774310897, 72.15953178754556 4.339158212148129 C72.09256223720108 4.59454213239836, 72.0255926868566 4.849926052648592, 71.84246063421489 5.548287939305125 C71.76311206026224 5.78727320157212, 71.68376348630959 6.026258463839115, 71.44857172997033 6.734618561215495 C71.29325167838643 7.1182620915366535, 71.13793162680251 7.501905621857813, 70.97948364880834 7.893275190886679 C70.85196787081944 8.158064432281213, 70.72445209283053 8.422853673675748, 70.4371239742735 9.019496659696284 C70.21197679282123 9.419268278989104, 69.98682961136896 9.819039898281925, 69.82372137860425 10.108655082055236 C69.67690092468435 10.33421072608836, 69.53008047076445 10.559766370121483, 69.14179646464065 11.156274872382301 C68.98472772051834 11.36673268024925, 68.82765897639601 11.5771904881162, 68.39415140812659 12.158051136245302 C68.15110787426175 12.44354390069179, 67.90806434039692 12.72903666513828, 67.58385844296866 13.10986736009567 C67.3983165586294 13.301454588947953, 67.21277467429016 13.493041817800238, 66.71424723676799 14.007812326905684 C66.43415610418916 14.26218368270851, 66.15406497161034 14.516555038511337, 65.7888912085019 14.848196188198111 C65.55262371292721 15.036613228576806, 65.31635621735253 15.225030268955503, 64.81159284457871 15.627565626425152 C64.42266941367244 15.898861775601402, 64.03374598276615 16.17015792477765, 63.78636807360571 16.34271804539089 C63.36724194029612 16.596794770461713, 62.94811580698653 16.85087149553254, 62.71742976407678 16.990714730406093 C62.30262866604889 17.207116197554463, 61.887827568020995 17.423517664702832, 61.60917041279239 17.56889292409717 C61.154462369938344 17.77017868623381, 60.69975432708431 17.971464448370448, 60.466144095147804 18.07487676824742 C60.11392005539109 18.204498470801223, 59.76169601563438 18.334120173355025, 59.29304775146062 18.506587066708033 C58.84920713788519 18.6383166310503, 58.40536652430975 18.770046195392567, 58.09470188623541 18.86224982926107 C57.75435331077537 18.93993217062781, 57.41400473531533 19.017614511994545, 56.876030759676766 19.140403561325773 C56.434733016881545 19.211749158065796, 55.99343527408632 19.28309475480582, 55.64204215284788 19.3399052695533 C55.23773247089317 19.378908538317937, 54.833422788938464 19.41791180708257, 54.3978067896239 19.45993515863156 C53.99388969348982 19.472887993727646, 53.58997259735574 19.485840828823733, 53.14843750000001 19.5 C53.14843750000001 19.5, 53.14843750000001 19.5, 53.1484375 19.5 C17.630226290714383 19.5, -17.887984918571235 19.5, -53.14843749999999 19.5 C-53.59097183829776 19.485808785111626, -54.03350617659552 19.471617570223252, -54.39780678962389 19.45993515863156 C-54.8489494880457 19.416413965093284, -55.3000921864675 19.37289277155501, -55.64204215284787 19.3399052695533 C-56.08892490636463 19.267656731592222, -56.53580765988139 19.195408193631142, -56.87603075967676 19.140403561325773 C-57.14335976974891 19.079387459261625, -57.41068877982107 19.018371357197477, -58.094701886235384 18.862249829261074 C-58.358682797073904 18.78390168058828, -58.62266370791243 18.705553531915484, -59.29304775146059 18.506587066708043 C-59.642524011540935 18.377976572475344, -59.99200027162128 18.24936607824264, -60.4661440951478 18.074876768247425 C-60.90553310421159 17.880372287946738, -61.34492211327539 17.68586780764605, -61.60917041279238 17.568892924097174 C-62.05090688617683 17.33843928887822, -62.492643359561285 17.107985653659266, -62.71742976407678 16.990714730406097 C-63.14092646510622 16.73398854149919, -63.564423166135654 16.477262352592284, -63.786368073605686 16.3427180453909 C-64.16311716483739 16.07991418855297, -64.53986625606909 15.817110331715039, -64.81159284457871 15.627565626425156 C-65.04852353289662 15.438619707482035, -65.28545422121452 15.249673788538914, -65.78889120850187 14.848196188198125 C-66.13524160321012 14.53364992365336, -66.48159199791839 14.219103659108596, -66.71424723676797 14.007812326905697 C-66.9534478117697 13.76081809448397, -67.19264838677144 13.51382386206224, -67.58385844296865 13.109867360095677 C-67.8474197031952 12.80027330677301, -68.11098096342177 12.490679253450342, -68.39415140812658 12.158051136245307 C-68.67780604552321 11.7779797636029, -68.96146068291984 11.397908390960495, -69.14179646464063 11.156274872382316 C-69.3386208381851 10.85389977987337, -69.53544521172955 10.551524687364424, -69.82372137860425 10.108655082055249 C-70.06550819004414 9.67933811477416, -70.30729500148402 9.250021147493072, -70.4371239742735 9.019496659696289 C-70.56686147228812 8.750093969131166, -70.69659897030274 8.480691278566045, -70.97948364880834 7.893275190886686 C-71.09264274212691 7.613770042607582, -71.20580183544548 7.334264894328478, -71.44857172997033 6.73461856121551 C-71.56085676262951 6.3964339330364774, -71.67314179528869 6.058249304857444, -71.84246063421489 5.5482879393051325 C-71.93391665143123 5.199526508370603, -72.02537266864758 4.850765077436074, -72.15953178754556 4.339158212148136 C-72.21809096536988 4.038469210506867, -72.2766501431942 3.737780208865598, -72.39848227658177 3.112197953150904 C-72.43454602778115 2.832494620441664, -72.47060977898055 2.552791287732424, -72.55833020250937 1.872449005199809 C-72.58355182769994 1.4796018343272384, -72.6087734528905 1.0867546634546676, -72.63841871591342 0.6250057626472781 C-72.63841871591342 0.1275810409114333, -72.63841871591342 -0.36984368082441155, -72.63841871591342 -0.6250057626472687 C-72.61166371399376 -1.0417365137947545, -72.58490871207411 -1.4584672649422403, -72.55833020250937 -1.8724490051997822 C-72.49534537966903 -2.3609468533892946, -72.43236055682871 -2.849444701578807, -72.39848227658177 -3.112197953150895 C-72.30683196155334 -3.582802950520943, -72.21518164652491 -4.053407947890991, -72.15953178754556 -4.339158212148126 C-72.04038651878973 -4.793510759800236, -71.9212412500339 -5.247863307452347, -71.84246063421489 -5.548287939305123 C-71.73956273116389 -5.858200028740303, -71.63666482811288 -6.168112118175483, -71.44857172997033 -6.734618561215485 C-71.34178145946923 -6.998392594002595, -71.23499118896815 -7.262166626789705, -70.97948364880834 -7.893275190886676 C-70.82183731260211 -8.220631181110138, -70.6641909763959 -8.547987171333599, -70.4371239742735 -9.019496659696282 C-70.20878508754468 -9.424935474902817, -69.98044620081588 -9.830374290109352, -69.82372137860425 -10.108655082055243 C-69.67349343169484 -10.339445550360239, -69.52326548478541 -10.570236018665234, -69.14179646464063 -11.156274872382308 C-68.86707456789743 -11.524377186338537, -68.59235267115425 -11.892479500294767, -68.39415140812659 -12.158051136245302 C-68.1279091764056 -12.470794411236943, -67.86166694468459 -12.783537686228584, -67.58385844296866 -13.10986736009567 C-67.30930543803233 -13.393365878913356, -67.03475243309597 -13.676864397731041, -66.71424723676799 -14.007812326905677 C-66.44182553091485 -14.255218512278145, -66.1694038250617 -14.502624697650612, -65.7888912085019 -14.848196188198107 C-65.53928410428894 -15.04725121148394, -65.28967700007597 -15.246306234769772, -64.81159284457871 -15.627565626425149 C-64.52204593387592 -15.829541017047672, -64.23249902317312 -16.031516407670196, -63.786368073605715 -16.342718045390885 C-63.41105697591065 -16.570233838386457, -63.03574587821558 -16.797749631382032, -62.71742976407679 -16.99071473040609 C-62.478218658154965 -17.11551101114348, -62.23900755223315 -17.240307291880868, -61.60917041279239 -17.56889292409717 C-61.3000966060959 -17.70571072997298, -60.99102279939942 -17.842528535848793, -60.466144095147804 -18.07487676824742 C-59.99751174263877 -18.247337805960726, -59.52887939012974 -18.419798843674027, -59.29304775146062 -18.506587066708033 C-58.887536053631244 -18.626940810049454, -58.48202435580187 -18.747294553390873, -58.09470188623541 -18.862249829261067 C-57.622014770492434 -18.970137578857702, -57.14932765474946 -19.07802532845434, -56.876030759676766 -19.140403561325773 C-56.56686014684596 -19.190387868354346, -56.25768953401515 -19.24037217538292, -55.64204215284788 -19.3399052695533 C-55.281979080487716 -19.374640121104683, -54.921916008127546 -19.409374972656067, -54.3978067896239 -19.45993515863156 C-53.98960830313188 -19.473025289583205, -53.58140981663986 -19.486115420534848, -53.14843750000001 -19.5 C-53.14843750000001 -19.5, -53.14843750000001 -19.5, -53.1484375 -19.5" stroke="none" stroke-width="0" fill="#ECECFF" style=""/><path d="M-53.1484375 -19.5 C-27.222478073406158 -19.5, -1.2965186468123164 -19.5, 53.1484375 -19.5 M-53.1484375 -19.5 C-19.717447942005435 -19.5, 13.71354161598913 -19.5, 53.1484375 -19.5 M53.1484375 -19.5 C53.1484375 -19.5, 53.1484375 -19.5, 53.1484375 -19.5 M53.1484375 -19.5 C53.1484375 -19.5, 53.1484375 -19.5, 53.1484375 -19.5 M53.1484375 -19.5 C53.571444717761686 -19.486434981859983, 53.99445193552337 -19.47286996371997, 54.3978067896239 -19.45993515863156 M53.1484375 -19.5 C53.520986834729605 -19.48805306795851, 53.89353616945921 -19.47610613591702, 54.3978067896239 -19.45993515863156 M54.3978067896239 -19.45993515863156 C54.85958355084853 -19.415388109844027, 55.32136031207316 -19.370841061056495, 55.642042152847864 -19.3399052695533 M54.3978067896239 -19.45993515863156 C54.71054270479039 -19.429765901015415, 55.02327861995688 -19.399596643399267, 55.642042152847864 -19.3399052695533 M55.642042152847864 -19.3399052695533 C55.93666358482025 -19.292273161255334, 56.23128501679263 -19.244641052957366, 56.87603075967676 -19.140403561325776 M55.642042152847864 -19.3399052695533 C56.04985691444928 -19.273972941548294, 56.4576716760507 -19.208040613543286, 56.87603075967676 -19.140403561325776 M56.87603075967676 -19.140403561325776 C57.189539381749526 -19.068847264172618, 57.5030480038223 -18.99729096701946, 58.09470188623539 -18.862249829261074 M56.87603075967676 -19.140403561325776 C57.34693729285202 -19.032922218080834, 57.81784382602727 -18.925440874835893, 58.09470188623539 -18.862249829261074 M58.09470188623539 -18.862249829261074 C58.532060536316294 -18.732444077659466, 58.96941918639719 -18.602638326057857, 59.293047751460605 -18.50658706670804 M58.09470188623539 -18.862249829261074 C58.52440428960015 -18.734716411496358, 58.95410669296491 -18.60718299373164, 59.293047751460605 -18.50658706670804 M59.293047751460605 -18.50658706670804 C59.74753927924007 -18.339329983211567, 60.20203080701954 -18.172072899715097, 60.4661440951478 -18.074876768247425 M59.293047751460605 -18.50658706670804 C59.64147296208802 -18.378363368389813, 59.98989817271543 -18.250139670071587, 60.4661440951478 -18.074876768247425 M60.4661440951478 -18.074876768247425 C60.81017034848196 -17.922586551072605, 61.154196601816125 -17.770296333897786, 61.60917041279238 -17.568892924097174 M60.4661440951478 -18.074876768247425 C60.82056232948721 -17.917986329348743, 61.17498056382663 -17.76109589045006, 61.60917041279238 -17.568892924097174 M61.60917041279238 -17.568892924097174 C61.983597207197064 -17.373554705288058, 62.35802400160175 -17.178216486478945, 62.71742976407678 -16.990714730406097 M61.60917041279238 -17.568892924097174 C62.01196843294863 -17.358753454986108, 62.414766453104875 -17.14861398587504, 62.71742976407678 -16.990714730406097 M62.71742976407678 -16.990714730406097 C63.05801539936564 -16.784249716790637, 63.39860103465449 -16.577784703175176, 63.7863680736057 -16.342718045390892 M62.71742976407678 -16.990714730406097 C62.96159539718299 -16.842700088740585, 63.20576103028919 -16.694685447075077, 63.7863680736057 -16.342718045390892 M63.7863680736057 -16.342718045390892 C64.17934961526633 -16.068591133825187, 64.57233115692698 -15.79446422225948, 64.81159284457871 -15.627565626425154 M63.7863680736057 -16.342718045390892 C64.1285237938453 -16.104045026634154, 64.4706795140849 -15.865372007877415, 64.81159284457871 -15.627565626425154 M64.81159284457871 -15.627565626425154 C65.0367732878852 -15.447990215191483, 65.2619537311917 -15.268414803957814, 65.78889120850187 -14.848196188198123 M64.81159284457871 -15.627565626425154 C65.17014451488299 -15.341630210818147, 65.52869618518729 -15.05569479521114, 65.78889120850187 -14.848196188198123 M65.78889120850187 -14.848196188198123 C66.14329354852234 -14.526337359963605, 66.49769588854282 -14.204478531729086, 66.71424723676799 -14.007812326905688 M65.78889120850187 -14.848196188198123 C66.07867014133971 -14.585026628525211, 66.36844907417756 -14.321857068852298, 66.71424723676799 -14.007812326905688 M66.71424723676799 -14.007812326905688 C66.92517310836311 -13.790014047147606, 67.13609897995823 -13.572215767389524, 67.58385844296865 -13.10986736009568 M66.71424723676799 -14.007812326905688 C66.90910712041796 -13.806603498743122, 67.10396700406791 -13.605394670580559, 67.58385844296865 -13.10986736009568 M67.58385844296865 -13.10986736009568 C67.82906882292657 -12.821829294931215, 68.0742792028845 -12.533791229766749, 68.39415140812658 -12.158051136245305 M67.58385844296865 -13.10986736009568 C67.78229763127183 -12.876769398005072, 67.98073681957501 -12.643671435914465, 68.39415140812658 -12.158051136245305 M68.39415140812658 -12.158051136245305 C68.55151658174643 -11.947196139856956, 68.70888175536626 -11.736341143468605, 69.14179646464063 -11.156274872382312 M68.39415140812658 -12.158051136245305 C68.58799092864287 -11.898323837897074, 68.78183044915916 -11.63859653954884, 69.14179646464063 -11.156274872382312 M69.14179646464063 -11.156274872382312 C69.37745780334143 -10.794235772207855, 69.61311914204224 -10.4321966720334, 69.82372137860425 -10.108655082055241 M69.14179646464063 -11.156274872382312 C69.3307384302958 -10.866009275114216, 69.51968039595096 -10.575743677846118, 69.82372137860425 -10.108655082055241 M69.82372137860425 -10.108655082055241 C69.98999348730808 -9.813422116174854, 70.1562655960119 -9.518189150294466, 70.4371239742735 -9.019496659696287 M69.82372137860425 -10.108655082055241 C70.04728720318371 -9.711691322019831, 70.27085302776318 -9.314727561984421, 70.4371239742735 -9.019496659696287 M70.4371239742735 -9.019496659696287 C70.64538062638681 -8.587047265604483, 70.85363727850012 -8.15459787151268, 70.97948364880834 -7.893275190886684 M70.4371239742735 -9.019496659696287 C70.61625434539715 -8.64752861128208, 70.7953847165208 -8.275560562867874, 70.97948364880834 -7.893275190886684 M70.97948364880834 -7.893275190886684 C71.08863623111131 -7.623666202276736, 71.19778881341428 -7.354057213666787, 71.44857172997033 -6.734618561215508 M70.97948364880834 -7.893275190886684 C71.16418451792448 -7.437060473221428, 71.34888538704064 -6.980845755556173, 71.44857172997033 -6.734618561215508 M71.44857172997033 -6.734618561215508 C71.60392158717761 -6.266729542945598, 71.75927144438488 -5.798840524675688, 71.84246063421489 -5.548287939305138 M71.44857172997033 -6.734618561215508 C71.58468079793771 -6.324679734532735, 71.72078986590508 -5.914740907849961, 71.84246063421489 -5.548287939305138 M71.84246063421489 -5.548287939305138 C71.95635850745013 -5.113945985008613, 72.07025638068538 -4.6796040307120865, 72.15953178754556 -4.339158212148133 M71.84246063421489 -5.548287939305138 C71.92645134270671 -5.227994966022471, 72.01044205119854 -4.907701992739804, 72.15953178754556 -4.339158212148133 M72.15953178754556 -4.339158212148133 C72.22199456391337 -4.018425057011891, 72.28445734028118 -3.6976919018756487, 72.39848227658177 -3.1121979531509023 M72.15953178754556 -4.339158212148133 C72.25078704881287 -3.870581732346838, 72.34204231008016 -3.4020052525455426, 72.39848227658177 -3.1121979531509023 M72.39848227658177 -3.1121979531509023 C72.43099694452079 -2.860020609363339, 72.4635116124598 -2.6078432655757755, 72.55833020250937 -1.872449005199798 M72.39848227658177 -3.1121979531509023 C72.44741827915816 -2.7326599806752623, 72.49635428173453 -2.3531220081996223, 72.55833020250937 -1.872449005199798 M72.55833020250937 -1.872449005199798 C72.5757426365233 -1.6012362903690596, 72.59315507053724 -1.3300235755383212, 72.63841871591342 -0.6250057626472757 M72.55833020250937 -1.872449005199798 C72.58300215671527 -1.4881634036000275, 72.60767411092115 -1.103877802000257, 72.63841871591342 -0.6250057626472757 M72.63841871591342 -0.6250057626472757 C72.63841871591342 -0.24522612505546482, 72.63841871591342 0.13455351253634606, 72.63841871591342 0.625005762647271 M72.63841871591342 -0.6250057626472757 C72.63841871591342 -0.3742578641148951, 72.63841871591342 -0.12350996558251448, 72.63841871591342 0.625005762647271 M72.63841871591342 0.625005762647271 C72.61284015862509 1.0234124390528707, 72.58726160133675 1.4218191154584705, 72.55833020250937 1.8724490051997846 M72.63841871591342 0.625005762647271 C72.6204931248766 0.9042113123224026, 72.60256753383977 1.183416861997534, 72.55833020250937 1.8724490051997846 M72.55833020250937 1.8724490051997846 C72.52134037101916 2.1593348337693428, 72.48435053952898 2.4462206623389005, 72.39848227658177 3.1121979531508885 M72.55833020250937 1.8724490051997846 C72.51191312739974 2.23245067366178, 72.46549605229012 2.5924523421237757, 72.39848227658177 3.1121979531508885 M72.39848227658177 3.1121979531508885 C72.30672335979976 3.583360597572572, 72.21496444301776 4.054523241994256, 72.15953178754556 4.339158212148129 M72.39848227658177 3.1121979531508885 C72.31365903547375 3.5477473688422365, 72.22883579436574 3.983296784533585, 72.15953178754556 4.339158212148129 M72.15953178754556 4.339158212148129 C72.05282405139656 4.746081057509677, 71.94611631524755 5.153003902871226, 71.84246063421489 5.548287939305125 M72.15953178754556 4.339158212148129 C72.06163691011872 4.712473807684938, 71.96374203269188 5.085789403221747, 71.84246063421489 5.548287939305125 M71.84246063421489 5.548287939305125 C71.7388252066748 5.860421334992864, 71.63518977913472 6.172554730680604, 71.44857172997033 6.734618561215495 M71.84246063421489 5.548287939305125 C71.69317022043141 5.997926879423718, 71.54387980664795 6.447565819542311, 71.44857172997033 6.734618561215495 M71.44857172997033 6.734618561215495 C71.27915852175173 7.153072460896988, 71.10974531353314 7.571526360578481, 70.97948364880834 7.893275190886679 M71.44857172997033 6.734618561215495 C71.26891141138196 7.178383021624696, 71.08925109279362 7.622147482033898, 70.97948364880834 7.893275190886679 M70.97948364880834 7.893275190886679 C70.76962296549496 8.32905539008621, 70.55976228218158 8.764835589285743, 70.4371239742735 9.019496659696284 M70.97948364880834 7.893275190886679 C70.84558103293013 8.171326837814808, 70.7116784170519 8.449378484742939, 70.4371239742735 9.019496659696284 M70.4371239742735 9.019496659696284 C70.2708943154748 9.314654251471582, 70.1046646566761 9.60981184324688, 69.82372137860425 10.108655082055236 M70.4371239742735 9.019496659696284 C70.30249322009523 9.258547196581963, 70.16786246591695 9.497597733467645, 69.82372137860425 10.108655082055236 M69.82372137860425 10.108655082055236 C69.60559599510073 10.443754245983374, 69.38747061159721 10.778853409911514, 69.14179646464065 11.156274872382301 M69.82372137860425 10.108655082055236 C69.56766376101855 10.502028343764652, 69.31160614343285 10.895401605474067, 69.14179646464065 11.156274872382301 M69.14179646464065 11.156274872382301 C68.95415151551367 11.40770200940591, 68.7665065663867 11.659129146429517, 68.39415140812659 12.158051136245302 M69.14179646464065 11.156274872382301 C68.88008558038936 11.506943614926985, 68.61837469613808 11.85761235747167, 68.39415140812659 12.158051136245302 M68.39415140812659 12.158051136245302 C68.07824171479653 12.529136637801566, 67.76233202146648 12.900222139357831, 67.58385844296866 13.10986736009567 M68.39415140812659 12.158051136245302 C68.22575638653345 12.355857510556772, 68.05736136494032 12.553663884868245, 67.58385844296866 13.10986736009567 M67.58385844296866 13.10986736009567 C67.2613455782538 13.442888371712405, 66.93883271353891 13.775909383329141, 66.71424723676799 14.007812326905684 M67.58385844296866 13.10986736009567 C67.33338341678856 13.368503389008708, 67.08290839060848 13.627139417921748, 66.71424723676799 14.007812326905684 M66.71424723676799 14.007812326905684 C66.50795977919832 14.195157137803424, 66.30167232162866 14.382501948701163, 65.7888912085019 14.848196188198111 M66.71424723676799 14.007812326905684 C66.36184597947405 14.327853824753717, 66.0094447221801 14.647895322601748, 65.7888912085019 14.848196188198111 M65.7888912085019 14.848196188198111 C65.53492882250133 15.050724432810643, 65.28096643650076 15.253252677423173, 64.81159284457871 15.627565626425152 M65.7888912085019 14.848196188198111 C65.55269442088247 15.036556840864106, 65.31649763326305 15.224917493530103, 64.81159284457871 15.627565626425152 M64.81159284457871 15.627565626425152 C64.49746474032186 15.846687793568274, 64.183336636065 16.065809960711395, 63.78636807360571 16.34271804539089 M64.81159284457871 15.627565626425152 C64.59123026036438 15.78128102583054, 64.37086767615007 15.934996425235928, 63.78636807360571 16.34271804539089 M63.78636807360571 16.34271804539089 C63.44899700658403 16.547234368831887, 63.111625939562344 16.751750692272886, 62.71742976407678 16.990714730406093 M63.78636807360571 16.34271804539089 C63.441647883494326 16.551689450437106, 63.096927693382945 16.760660855483323, 62.71742976407678 16.990714730406093 M62.71742976407678 16.990714730406093 C62.350570034347186 17.182105216421153, 61.98371030461759 17.373495702436212, 61.60917041279239 17.56889292409717 M62.71742976407678 16.990714730406093 C62.30226243178821 17.207307261733675, 61.88709509949963 17.42389979306126, 61.60917041279239 17.56889292409717 M61.60917041279239 17.56889292409717 C61.34170317755022 17.687292735005244, 61.07423594230806 17.805692545913317, 60.466144095147804 18.07487676824742 M61.60917041279239 17.56889292409717 C61.236383965987066 17.733914425780842, 60.863597519181745 17.898935927464517, 60.466144095147804 18.07487676824742 M60.466144095147804 18.07487676824742 C60.1893368926039 18.17674437756131, 59.91252969005999 18.278611986875198, 59.29304775146062 18.506587066708033 M60.466144095147804 18.07487676824742 C60.007044807443435 18.243829549989922, 59.54794551973906 18.412782331732426, 59.29304775146062 18.506587066708033 M59.29304775146062 18.506587066708033 C58.97760198786611 18.60020971353428, 58.662156224271605 18.69383236036053, 58.09470188623541 18.86224982926107 M59.29304775146062 18.506587066708033 C58.90448498268436 18.621910456873234, 58.51592221390809 18.737233847038436, 58.09470188623541 18.86224982926107 M58.09470188623541 18.86224982926107 C57.67529041489792 18.957977760678222, 57.25587894356044 19.053705692095374, 56.876030759676766 19.140403561325773 M58.09470188623541 18.86224982926107 C57.78028173735892 18.93401417645891, 57.465861588482426 19.005778523656748, 56.876030759676766 19.140403561325773 M56.876030759676766 19.140403561325773 C56.55822343365275 19.191784185164714, 56.24041610762873 19.243164809003655, 55.64204215284788 19.3399052695533 M56.876030759676766 19.140403561325773 C56.5168199604345 19.19847797762591, 56.15760916119225 19.256552393926043, 55.64204215284788 19.3399052695533 M55.64204215284788 19.3399052695533 C55.38003213481413 19.365181060879866, 55.11802211678038 19.39045685220643, 54.3978067896239 19.45993515863156 M55.64204215284788 19.3399052695533 C55.289947578680476 19.373871409667547, 54.93785300451308 19.4078375497818, 54.3978067896239 19.45993515863156 M54.3978067896239 19.45993515863156 C54.02466820590129 19.47190098674135, 53.65152962217868 19.48386681485114, 53.14843750000001 19.5 M54.3978067896239 19.45993515863156 C53.93808436360183 19.474677562038668, 53.478361937579756 19.489419965445776, 53.14843750000001 19.5 M53.14843750000001 19.5 C53.14843750000001 19.5, 53.1484375 19.5, 53.1484375 19.5 M53.14843750000001 19.5 C53.14843750000001 19.5, 53.1484375 19.5, 53.1484375 19.5 M53.1484375 19.5 C18.719069010699506 19.5, -15.710299478600987 19.5, -53.14843749999999 19.5 M53.1484375 19.5 C14.564729296562653 19.5, -24.018978906874693 19.5, -53.14843749999999 19.5 M-53.14843749999999 19.5 C-53.606044040346966 19.48532544892817, -54.06365058069394 19.470650897856338, -54.39780678962389 19.45993515863156 M-53.14843749999999 19.5 C-53.432282510432046 19.49089764298624, -53.7161275208641 19.48179528597248, -54.39780678962389 19.45993515863156 M-54.39780678962389 19.45993515863156 C-54.72482641766256 19.428387968413315, -55.051846045701225 19.396840778195067, -55.64204215284787 19.3399052695533 M-54.39780678962389 19.45993515863156 C-54.80238568823672 19.420905918859695, -55.20696458684955 19.381876679087828, -55.64204215284787 19.3399052695533 M-55.64204215284787 19.3399052695533 C-55.958910084460896 19.288676519717615, -56.27577801607393 19.23744776988193, -56.87603075967676 19.140403561325773 M-55.64204215284787 19.3399052695533 C-56.04547354637885 19.274681610504395, -56.44890493990982 19.209457951455487, -56.87603075967676 19.140403561325773 M-56.87603075967676 19.140403561325773 C-57.257905004561295 19.05324325689321, -57.63977924944584 18.96608295246065, -58.094701886235384 18.862249829261074 M-56.87603075967676 19.140403561325773 C-57.15866203140811 19.0758948178945, -57.44129330313947 19.011386074463232, -58.094701886235384 18.862249829261074 M-58.094701886235384 18.862249829261074 C-58.50101709892902 18.741657606925678, -58.907332311622646 18.621065384590285, -59.29304775146059 18.506587066708043 M-58.094701886235384 18.862249829261074 C-58.417751543373484 18.76637038674474, -58.74080120051159 18.670490944228405, -59.29304775146059 18.506587066708043 M-59.29304775146059 18.506587066708043 C-59.52813365029895 18.420073282825303, -59.763219549137304 18.33355949894256, -60.4661440951478 18.074876768247425 M-59.29304775146059 18.506587066708043 C-59.56612840140929 18.40609086319707, -59.83920905135798 18.305594659686093, -60.4661440951478 18.074876768247425 M-60.4661440951478 18.074876768247425 C-60.88539657749856 17.889286130993753, -61.304649059849325 17.70369549374008, -61.60917041279238 17.568892924097174 M-60.4661440951478 18.074876768247425 C-60.878368489165226 17.89239725721809, -61.29059288318265 17.709917746188754, -61.60917041279238 17.568892924097174 M-61.60917041279238 17.568892924097174 C-62.04172763784853 17.343228096851504, -62.47428486290469 17.11756326960584, -62.71742976407678 16.990714730406097 M-61.60917041279238 17.568892924097174 C-61.84621287100177 17.445228025482276, -62.083255329211156 17.32156312686738, -62.71742976407678 16.990714730406097 M-62.71742976407678 16.990714730406097 C-63.11971306222009 16.746848230992555, -63.521996360363396 16.502981731579013, -63.786368073605686 16.3427180453909 M-62.71742976407678 16.990714730406097 C-63.09373528233877 16.762596113818994, -63.47004080060075 16.53447749723189, -63.786368073605686 16.3427180453909 M-63.786368073605686 16.3427180453909 C-64.15686153808367 16.084277842974643, -64.52735500256165 15.82583764055839, -64.81159284457871 15.627565626425156 M-63.786368073605686 16.3427180453909 C-64.1158310313473 16.112898948291924, -64.44529398908892 15.883079851192946, -64.81159284457871 15.627565626425156 M-64.81159284457871 15.627565626425156 C-65.1022510934381 15.395773407700634, -65.39290934229749 15.163981188976111, -65.78889120850187 14.848196188198125 M-64.81159284457871 15.627565626425156 C-65.13143740016038 15.372498104769857, -65.45128195574205 15.117430583114558, -65.78889120850187 14.848196188198125 M-65.78889120850187 14.848196188198125 C-66.01534472265524 14.642537098275678, -66.24179823680862 14.436878008353233, -66.71424723676797 14.007812326905697 M-65.78889120850187 14.848196188198125 C-66.04173486485846 14.618570269371629, -66.29457852121503 14.388944350545135, -66.71424723676797 14.007812326905697 M-66.71424723676797 14.007812326905697 C-67.01917032339217 13.692954205315223, -67.32409341001636 13.378096083724747, -67.58385844296865 13.109867360095677 M-66.71424723676797 14.007812326905697 C-67.02167468278975 13.69036824862549, -67.32910212881153 13.372924170345282, -67.58385844296865 13.109867360095677 M-67.58385844296865 13.109867360095677 C-67.78186243766388 12.877280601180189, -67.9798664323591 12.644693842264703, -68.39415140812658 12.158051136245307 M-67.58385844296865 13.109867360095677 C-67.81383149440177 12.839727928045008, -68.04380454583487 12.569588495994338, -68.39415140812658 12.158051136245307 M-68.39415140812658 12.158051136245307 C-68.64950240319631 11.81590406580609, -68.90485339826603 11.473756995366871, -69.14179646464063 11.156274872382316 M-68.39415140812658 12.158051136245307 C-68.64261861109586 11.825127720094336, -68.89108581406512 11.492204303943366, -69.14179646464063 11.156274872382316 M-69.14179646464063 11.156274872382316 C-69.3936890237261 10.769300259004083, -69.64558158281154 10.38232564562585, -69.82372137860425 10.108655082055249 M-69.14179646464063 11.156274872382316 C-69.35842562071998 10.82347431557104, -69.57505477679932 10.490673758759765, -69.82372137860425 10.108655082055249 M-69.82372137860425 10.108655082055249 C-69.99494852656673 9.804623942219, -70.16617567452921 9.500592802382748, -70.4371239742735 9.019496659696289 M-69.82372137860425 10.108655082055249 C-69.99104333947047 9.811557997351484, -70.15836530033668 9.514460912647719, -70.4371239742735 9.019496659696289 M-70.4371239742735 9.019496659696289 C-70.58889129223638 8.70434857664596, -70.74065861019928 8.389200493595633, -70.97948364880834 7.893275190886686 M-70.4371239742735 9.019496659696289 C-70.60996512503914 8.660588311923252, -70.78280627580479 8.301679964150217, -70.97948364880834 7.893275190886686 M-70.97948364880834 7.893275190886686 C-71.07963975289394 7.645887677408701, -71.17979585697955 7.3985001639307155, -71.44857172997033 6.73461856121551 M-70.97948364880834 7.893275190886686 C-71.14932960994553 7.473752383129569, -71.31917557108271 7.054229575372452, -71.44857172997033 6.73461856121551 M-71.44857172997033 6.73461856121551 C-71.55426304175873 6.416293169732516, -71.65995435354712 6.097967778249521, -71.84246063421489 5.5482879393051325 M-71.44857172997033 6.73461856121551 C-71.52931579693424 6.491430296340191, -71.61005986389816 6.248242031464873, -71.84246063421489 5.5482879393051325 M-71.84246063421489 5.5482879393051325 C-71.93266498066721 5.204299671471353, -72.02286932711954 4.8603114036375725, -72.15953178754556 4.339158212148136 M-71.84246063421489 5.5482879393051325 C-71.9554618407246 5.1173653638508885, -72.06846304723432 4.686442788396645, -72.15953178754556 4.339158212148136 M-72.15953178754556 4.339158212148136 C-72.2125625648669 4.066856378661838, -72.26559334218823 3.794554545175541, -72.39848227658177 3.112197953150904 M-72.15953178754556 4.339158212148136 C-72.23949090709125 3.9285850326469016, -72.31945002663694 3.5180118531456674, -72.39848227658177 3.112197953150904 M-72.39848227658177 3.112197953150904 C-72.45984317322886 2.636294955835714, -72.52120406987594 2.1603919585205236, -72.55833020250937 1.872449005199809 M-72.39848227658177 3.112197953150904 C-72.43627162190758 2.8191112531542366, -72.47406096723338 2.5260245531575687, -72.55833020250937 1.872449005199809 M-72.55833020250937 1.872449005199809 C-72.57699736942456 1.5816928126297944, -72.59566453633975 1.2909366200597798, -72.63841871591342 0.6250057626472781 M-72.55833020250937 1.872449005199809 C-72.58402267590839 1.472267993418748, -72.60971514930742 1.0720869816376868, -72.63841871591342 0.6250057626472781 M-72.63841871591342 0.6250057626472781 C-72.63841871591342 0.3536411057243217, -72.63841871591342 0.08227644880136531, -72.63841871591342 -0.6250057626472687 M-72.63841871591342 0.6250057626472781 C-72.63841871591342 0.2548220096941776, -72.63841871591342 -0.1153617432589229, -72.63841871591342 -0.6250057626472687 M-72.63841871591342 -0.6250057626472687 C-72.60885239081918 -1.0855251414981129, -72.57928606572494 -1.5460445203489572, -72.55833020250937 -1.8724490051997822 M-72.63841871591342 -0.6250057626472687 C-72.61164583812408 -1.042014944894172, -72.58487296033475 -1.4590241271410753, -72.55833020250937 -1.8724490051997822 M-72.55833020250937 -1.8724490051997822 C-72.51652015966255 -2.1967194411928412, -72.47471011681574 -2.5209898771859, -72.39848227658177 -3.112197953150895 M-72.55833020250937 -1.8724490051997822 C-72.51018634945332 -2.245843222423396, -72.46204249639726 -2.6192374396470095, -72.39848227658177 -3.112197953150895 M-72.39848227658177 -3.112197953150895 C-72.33089938926325 -3.4592217958832023, -72.26331650194473 -3.806245638615509, -72.15953178754556 -4.339158212148126 M-72.39848227658177 -3.112197953150895 C-72.30696028999957 -3.582144011071794, -72.21543830341737 -4.052090068992693, -72.15953178754556 -4.339158212148126 M-72.15953178754556 -4.339158212148126 C-72.06258367222608 -4.708863393440267, -71.9656355569066 -5.078568574732408, -71.84246063421489 -5.548287939305123 M-72.15953178754556 -4.339158212148126 C-72.06536384049383 -4.698261406902793, -71.9711958934421 -5.05736460165746, -71.84246063421489 -5.548287939305123 M-71.84246063421489 -5.548287939305123 C-71.7123892869361 -5.940042113254028, -71.5823179396573 -6.331796287202933, -71.44857172997033 -6.734618561215485 M-71.84246063421489 -5.548287939305123 C-71.70168660183464 -5.972276895538315, -71.56091256945439 -6.396265851771508, -71.44857172997033 -6.734618561215485 M-71.44857172997033 -6.734618561215485 C-71.28899131665203 -7.128785267389094, -71.12941090333372 -7.5229519735627015, -70.97948364880834 -7.893275190886676 M-71.44857172997033 -6.734618561215485 C-71.28170061941364 -7.146793430523957, -71.11482950885694 -7.558968299832429, -70.97948364880834 -7.893275190886676 M-70.97948364880834 -7.893275190886676 C-70.78183059138246 -8.30370599372945, -70.58417753395659 -8.714136796572223, -70.4371239742735 -9.019496659696282 M-70.97948364880834 -7.893275190886676 C-70.81951566117732 -8.225452139969113, -70.6595476735463 -8.557629089051549, -70.4371239742735 -9.019496659696282 M-70.4371239742735 -9.019496659696282 C-70.20078750009807 -9.439136001257829, -69.96445102592264 -9.858775342819376, -69.82372137860425 -10.108655082055243 M-70.4371239742735 -9.019496659696282 C-70.20702947259002 -9.428052747030124, -69.97693497090654 -9.836608834363965, -69.82372137860425 -10.108655082055243 M-69.82372137860425 -10.108655082055243 C-69.65286453495182 -10.37113707539192, -69.48200769129937 -10.633619068728594, -69.14179646464063 -11.156274872382308 M-69.82372137860425 -10.108655082055243 C-69.60293473094781 -10.447842662371738, -69.38214808329137 -10.78703024268823, -69.14179646464063 -11.156274872382308 M-69.14179646464063 -11.156274872382308 C-68.97683028437059 -11.377314525215976, -68.81186410410055 -11.598354178049643, -68.39415140812659 -12.158051136245302 M-69.14179646464063 -11.156274872382308 C-68.93717302421848 -11.430451640969082, -68.73254958379633 -11.704628409555854, -68.39415140812659 -12.158051136245302 M-68.39415140812659 -12.158051136245302 C-68.09149870024238 -12.513564228353026, -67.78884599235818 -12.86907732046075, -67.58385844296866 -13.10986736009567 M-68.39415140812659 -12.158051136245302 C-68.13448436915738 -12.463070815691626, -67.87481733018816 -12.768090495137951, -67.58385844296866 -13.10986736009567 M-67.58385844296866 -13.10986736009567 C-67.34314663265609 -13.358422067050567, -67.10243482234351 -13.606976774005465, -66.71424723676799 -14.007812326905677 M-67.58385844296866 -13.10986736009567 C-67.27278920886788 -13.431071883563808, -66.9617199747671 -13.752276407031946, -66.71424723676799 -14.007812326905677 M-66.71424723676799 -14.007812326905677 C-66.35993113850142 -14.329592832661133, -66.00561504023486 -14.651373338416589, -65.7888912085019 -14.848196188198107 M-66.71424723676799 -14.007812326905677 C-66.46639573865941 -14.232904499696605, -66.21854424055084 -14.457996672487532, -65.7888912085019 -14.848196188198107 M-65.7888912085019 -14.848196188198107 C-65.47498611222379 -15.098527149114464, -65.16108101594568 -15.34885811003082, -64.81159284457871 -15.627565626425149 M-65.7888912085019 -14.848196188198107 C-65.44301487284974 -15.124023361724847, -65.09713853719761 -15.399850535251588, -64.81159284457871 -15.627565626425149 M-64.81159284457871 -15.627565626425149 C-64.41153129910285 -15.906631242163938, -64.01146975362697 -16.185696857902727, -63.786368073605715 -16.342718045390885 M-64.81159284457871 -15.627565626425149 C-64.49464232312903 -15.848656589621516, -64.17769180167934 -16.069747552817883, -63.786368073605715 -16.342718045390885 M-63.786368073605715 -16.342718045390885 C-63.3957139204745 -16.579534888757653, -63.00505976734328 -16.816351732124424, -62.71742976407679 -16.99071473040609 M-63.786368073605715 -16.342718045390885 C-63.45912179864163 -16.541096660386682, -63.13187552367756 -16.739475275382482, -62.71742976407679 -16.99071473040609 M-62.71742976407679 -16.99071473040609 C-62.35640948366961 -17.179058779449992, -61.99538920326242 -17.367402828493894, -61.60917041279239 -17.56889292409717 M-62.71742976407679 -16.99071473040609 C-62.42868552228147 -17.141352416401194, -62.13994128048615 -17.291990102396298, -61.60917041279239 -17.56889292409717 M-61.60917041279239 -17.56889292409717 C-61.26524063366196 -17.7211404350038, -60.92131085453154 -17.87338794591043, -60.466144095147804 -18.07487676824742 M-61.60917041279239 -17.56889292409717 C-61.204523872818086 -17.748017943930666, -60.799877332843785 -17.927142963764165, -60.466144095147804 -18.07487676824742 M-60.466144095147804 -18.07487676824742 C-60.11726893250122 -18.203266053068013, -59.76839376985464 -18.33165533788861, -59.29304775146062 -18.506587066708033 M-60.466144095147804 -18.07487676824742 C-60.138882544893946 -18.19531204391345, -59.81162099464009 -18.315747319579476, -59.29304775146062 -18.506587066708033 M-59.29304775146062 -18.506587066708033 C-58.94906237989921 -18.6086801193714, -58.6050770083378 -18.710773172034763, -58.09470188623541 -18.862249829261067 M-59.29304775146062 -18.506587066708033 C-58.87406888413741 -18.630937795264607, -58.4550900168142 -18.755288523821186, -58.09470188623541 -18.862249829261067 M-58.09470188623541 -18.862249829261067 C-57.64995339609135 -18.963760769881322, -57.20520490594728 -19.06527171050158, -56.876030759676766 -19.140403561325773 M-58.09470188623541 -18.862249829261067 C-57.696400088285955 -18.953159615480896, -57.298098290336505 -19.04406940170072, -56.876030759676766 -19.140403561325773 M-56.876030759676766 -19.140403561325773 C-56.44863732635141 -19.20950121714024, -56.02124389302606 -19.278598872954706, -55.64204215284788 -19.3399052695533 M-56.876030759676766 -19.140403561325773 C-56.523025690290446 -19.197474683348954, -56.17002062090413 -19.254545805372135, -55.64204215284788 -19.3399052695533 M-55.64204215284788 -19.3399052695533 C-55.18278023677274 -19.384209714253803, -54.723518320697615 -19.428514158954307, -54.3978067896239 -19.45993515863156 M-55.64204215284788 -19.3399052695533 C-55.196213058489406 -19.38291386609813, -54.75038396413094 -19.425922462642955, -54.3978067896239 -19.45993515863156 M-54.3978067896239 -19.45993515863156 C-54.05385671263583 -19.470964968142354, -53.70990663564775 -19.481994777653153, -53.14843750000001 -19.5 M-54.3978067896239 -19.45993515863156 C-53.93286560851952 -19.474844917356467, -53.46792442741514 -19.489754676081375, -53.14843750000001 -19.5 M-53.14843750000001 -19.5 C-53.14843750000001 -19.5, -53.1484375 -19.5, -53.1484375 -19.5 M-53.14843750000001 -19.5 C-53.14843750000001 -19.5, -53.1484375 -19.5, -53.1484375 -19.5" stroke="#9370DB" stroke-width="1.3" fill="none" stroke-dasharray="0 0" style=""/></g><g class="label" style="" transform="translate(-60.2734375, -12)"><rect/><foreignObject width="120.546875" height="24"><div xmlns="http://www.w3.org/1999/xhtml" style="display: table-cell; white-space: nowrap; line-height: 1.5; max-width: 200px; text-align: center;"><span class="nodeLabel"><p>run_nightly_sync</p></span></div></foreignObject></g></g><g class="node default" id="my-svg-flowchart-LOG-1" data-look="classic" transform="translate(711.125, 124)"><rect class="basic label-container" style="" x="-117.1328125" y="-27" width="234.265625" height="54"/><g class="label" style="" transform="translate(-87.1328125, -12)"><rect/><foreignObject width="174.265625" height="24"><div xmlns="http://www.w3.org/1999/xhtml" style="display: table-cell; white-space: nowrap; line-height: 1.5; max-width: 200px; text-align: center;"><span class="nodeLabel"><p>Create SyncLog: running</p></span></div></foreignObject></g></g><g class="node default" id="my-svg-flowchart-GL-3" data-look="classic" transform="translate(520.90234375, 307.703125)"><polygon points="106.703125,0 213.40625,-106.703125 106.703125,-213.40625 0,-106.703125" class="label-container" transform="translate(-106.203125, 106.703125)"/><g class="label" style="" transform="translate(-79.703125, -12)"><rect/><foreignObject width="159.40625" height="24"><div xmlns="http://www.w3.org/1999/xhtml" style="display: table-cell; white-space: nowrap; line-height: 1.5; max-width: 200px; text-align: center;"><span class="nodeLabel"><p>GitLab token + collect</p></span></div></foreignObject></g></g><g class="node default" id="my-svg-flowchart-JR-5" data-look="classic" transform="translate(985.6171875, 307.703125)"><polygon points="96.5390625,0 193.078125,-96.5390625 96.5390625,-193.078125 0,-96.5390625" class="label-container" transform="translate(-96.0390625, 96.5390625)"/><g class="label" style="" transform="translate(-69.5390625, -12)"><rect/><foreignObject width="139.078125" height="24"><div xmlns="http://www.w3.org/1999/xhtml" style="display: table-cell; white-space: nowrap; line-height: 1.5; max-width: 200px; text-align: center;"><span class="nodeLabel"><p>Jira token + collect</p></span></div></foreignObject></g></g><g class="node default" id="my-svg-flowchart-GL_OK-7" data-look="classic" transform="translate(419.8203125, 515.40625)"><rect class="basic label-container" style="" x="-63.015625" y="-27" width="126.03125" height="54"/><g class="label" style="" transform="translate(-33.015625, -12)"><rect/><foreignObject width="66.03125" height="24"><div xmlns="http://www.w3.org/1999/xhtml" style="display: table-cell; white-space: nowrap; line-height: 1.5; max-width: 200px; text-align: center;"><span class="nodeLabel"><p>gitlab_ok</p></span></div></foreignObject></g></g><g class="node default" id="my-svg-flowchart-GL_FAIL-9" data-look="classic" transform="translate(689.32421875, 515.40625)"><rect class="basic label-container" style="" x="-89.1484375" y="-27" width="178.296875" height="54"/><g class="label" style="" transform="translate(-59.1484375, -12)"><rect/><foreignObject width="118.296875" height="24"><div xmlns="http://www.w3.org/1999/xhtml" style="display: table-cell; white-space: nowrap; line-height: 1.5; max-width: 200px; text-align: center;"><span class="nodeLabel"><p>gitlab_ok = false</p></span></div></foreignObject></g></g><g class="node default" id="my-svg-flowchart-JR_OK-11" data-look="classic" transform="translate(883.52734375, 515.40625)"><rect class="basic label-container" style="" x="-55.0546875" y="-27" width="110.109375" height="54"/><g class="label" style="" transform="translate(-25.0546875, -12)"><rect/><foreignObject width="50.109375" height="24"><div xmlns="http://www.w3.org/1999/xhtml" style="display: table-cell; white-space: nowrap; line-height: 1.5; max-width: 200px; text-align: center;"><span class="nodeLabel"><p>jira_ok</p></span></div></foreignObject></g></g><g class="node default" id="my-svg-flowchart-JR_FAIL-13" data-look="classic" transform="translate(1069.76953125, 515.40625)"><rect class="basic label-container" style="" x="-81.1875" y="-27" width="162.375" height="54"/><g class="label" style="" transform="translate(-51.1875, -12)"><rect/><foreignObject width="102.375" height="24"><div xmlns="http://www.w3.org/1999/xhtml" style="display: table-cell; white-space: nowrap; line-height: 1.5; max-width: 200px; text-align: center;"><span class="nodeLabel"><p>jira_ok = false</p></span></div></foreignObject></g></g><g class="node default" id="my-svg-flowchart-BOTH-15" data-look="classic" transform="translate(337.3203125, 649.375)"><polygon points="56.96875,0 113.9375,-56.96875 56.96875,-113.9375 0,-56.96875" class="label-container" transform="translate(-56.46875, 56.96875)"/><g class="label" style="" transform="translate(-29.96875, -12)"><rect/><foreignObject width="59.9375" height="24"><div xmlns="http://www.w3.org/1999/xhtml" style="display: table-cell; white-space: nowrap; line-height: 1.5; max-width: 200px; text-align: center;"><span class="nodeLabel"><p>both ok?</p></span></div></foreignObject></g></g><g class="node default" id="my-svg-flowchart-MAP-19" data-look="classic" transform="translate(191.984375, 819.34375)"><rect class="basic label-container" style="" x="-110.671875" y="-27" width="221.34375" height="54"/><g class="label" style="" transform="translate(-80.671875, -12)"><rect/><foreignObject width="161.34375" height="24"><div xmlns="http://www.w3.org/1999/xhtml" style="display: table-cell; white-space: nowrap; line-height: 1.5; max-width: 200px; text-align: center;"><span class="nodeLabel"><p>map_bugs_to_releases</p></span></div></foreignObject></g></g><g class="node default" id="my-svg-flowchart-MTTR-21" data-look="classic" transform="translate(191.984375, 1011.2109375)"><rect class="basic label-container" style="" x="-150.796875" y="-27" width="301.59375" height="54"/><g class="label" style="" transform="translate(-120.796875, -12)"><rect/><foreignObject width="241.59375" height="24"><div xmlns="http://www.w3.org/1999/xhtml" style="display: table; white-space: break-spaces; line-height: 1.5; max-width: 200px; text-align: center; width: 200px;"><span class="nodeLabel"><p>_resolve_mttr_alpha_fix_releases</p></span></div></foreignObject></g></g><g class="node default" id="my-svg-flowchart-HYDR-23" data-look="classic" transform="translate(191.984375, 1227.078125)"><rect class="basic label-container" style="" x="-183.984375" y="-27" width="367.96875" height="54"/><g class="label" style="" transform="translate(-153.984375, -12)"><rect/><foreignObject width="307.96875" height="24"><div xmlns="http://www.w3.org/1999/xhtml" style="display: table; white-space: break-spaces; line-height: 1.5; max-width: 200px; text-align: center; width: 200px;"><span class="nodeLabel"><p>hydrate_merge_request_jira_ready_for_qa</p></span></div></foreignObject></g></g><g class="node default" id="my-svg-flowchart-LPP-25" data-look="classic" transform="translate(191.984375, 1343.078125)"><rect class="basic label-container" style="" x="-147.3515625" y="-27" width="294.703125" height="54"/><g class="label" style="" transform="translate(-117.3515625, -12)"><rect/><foreignObject width="234.703125" height="24"><div xmlns="http://www.w3.org/1999/xhtml" style="display: table; white-space: break-spaces; line-height: 1.5; max-width: 200px; text-align: center; width: 200px;"><span class="nodeLabel"><p>_compute_lead_post_production</p></span></div></foreignObject></g></g><g class="node default" id="my-svg-flowchart-SKIP_DERIV-27" data-look="classic" transform="translate(482.65625, 819.34375)"><rect class="basic label-container" style="" x="-130" y="-39" width="260" height="78"/><g class="label" style="" transform="translate(-100, -24)"><rect/><foreignObject width="200" height="48"><div xmlns="http://www.w3.org/1999/xhtml" style="display: table; white-space: break-spaces; line-height: 1.5; max-width: 200px; text-align: center; width: 200px;"><span class="nodeLabel"><p>Skip cross-system derivations</p></span></div></foreignObject></g></g><g class="node default" id="my-svg-flowchart-ANY-29" data-look="classic" transform="translate(762.30859375, 1011.2109375)"><polygon points="102.8671875,0 205.734375,-102.8671875 102.8671875,-205.734375 0,-102.8671875" class="label-container" transform="translate(-102.3671875, 102.8671875)"/><g class="label" style="" transform="translate(-75.8671875, -12)"><rect/><foreignObject width="151.734375" height="24"><div xmlns="http://www.w3.org/1999/xhtml" style="display: table-cell; white-space: nowrap; line-height: 1.5; max-width: 200px; text-align: center;"><span class="nodeLabel"><p>gitlab_ok OR jira_ok?</p></span></div></foreignObject></g></g><g class="node default" id="my-svg-flowchart-SNAP-35" data-look="classic" transform="translate(555.96875, 1227.078125)"><rect class="basic label-container" style="" x="-130" y="-39" width="260" height="78"/><g class="label" style="" transform="translate(-100, -24)"><rect/><foreignObject width="200" height="48"><div xmlns="http://www.w3.org/1999/xhtml" style="display: table; white-space: break-spaces; line-height: 1.5; max-width: 200px; text-align: center; width: 200px;"><span class="nodeLabel"><p>refresh_snapshots → metric_snapshot</p></span></div></foreignObject></g></g><g class="node default" id="my-svg-flowchart-NO_SNAP-37" data-look="classic" transform="translate(930.8046875, 1227.078125)"><rect class="basic label-container" style="" x="-81.6171875" y="-27" width="163.234375" height="54"/><g class="label" style="" transform="translate(-51.6171875, -12)"><rect/><foreignObject width="103.234375" height="24"><div xmlns="http://www.w3.org/1999/xhtml" style="display: table-cell; white-space: nowrap; line-height: 1.5; max-width: 200px; text-align: center;"><span class="nodeLabel"><p>Skip snapshots</p></span></div></foreignObject></g></g><g class="node default" id="my-svg-flowchart-FIN-39" data-look="classic" transform="translate(762.30859375, 1343.078125)"><rect class="basic label-container" style="" x="-122.421875" y="-27" width="244.84375" height="54"/><g class="label" style="" transform="translate(-92.421875, -12)"><rect/><foreignObject width="184.84375" height="24"><div xmlns="http://www.w3.org/1999/xhtml" style="display: table-cell; white-space: nowrap; line-height: 1.5; max-width: 200px; text-align: center;"><span class="nodeLabel"><p>Finish SyncLog + webhook</p></span></div></foreignObject></g></g></g></g></g><defs><filter id="my-svg-drop-shadow" height="130%" width="130%"><feDropShadow dx="4" dy="4" stdDeviation="0" flood-opacity="0.06" flood-color="#000000"/></filter></defs><defs><filter id="my-svg-drop-shadow-small" height="150%" width="150%"><feDropShadow dx="2" dy="2" stdDeviation="0" flood-opacity="0.06" flood-color="#000000"/></filter></defs></svg>